<svg width="38" height="38" viewBox="0 0 38 38" fill="none" xmlns="http://www.w3.org/2000/svg">
<g clip-path="url(#clip0_3_48)">
<path d="M19 0.76001C8.92621 0.76001 0.76001 8.92621 0.76001 19C0.76001 29.0738 8.92621 37.24 19 37.24C29.0738 37.24 37.24 29.0738 37.24 19C37.24 8.92621 29.0738 0.76001 19 0.76001ZM23.3206 13.3646H20.5789C20.254 13.3646 19.893 13.7921 19.893 14.3602V16.34H23.3225L22.8038 19.1634H19.893V27.6393H16.6573V19.1634H13.7218V16.34H16.6573V14.6794C16.6573 12.2968 18.3103 10.3607 20.5789 10.3607H23.3206V13.3646V13.3646Z" fill="#474946"/>
</g>
<defs>
<clipPath id="clip0_3_48">
<rect width="38" height="38" fill="white"/>
</clipPath>
</defs>
</svg>
