<svg width="38" height="38" viewBox="0 0 38 38" fill="none" xmlns="http://www.w3.org/2000/svg">
<g clip-path="url(#clip0_3_43)">
<path d="M24.7 19C24.7 20.5117 24.0995 21.9616 23.0305 23.0305C21.9616 24.0995 20.5117 24.7 19 24.7C17.4883 24.7 16.0385 24.0995 14.9695 23.0305C13.9005 21.9616 13.3 20.5117 13.3 19C13.3 18.6751 13.3342 18.3578 13.3931 18.05H11.4V25.6443C11.4 26.1725 11.8275 26.6 12.3557 26.6H25.6462C25.8994 26.5995 26.1419 26.4986 26.3208 26.3194C26.4996 26.1402 26.6 25.8974 26.6 25.6443V18.05H24.6069C24.6658 18.3578 24.7 18.6751 24.7 19V19ZM19 22.8C19.4992 22.7999 19.9934 22.7014 20.4545 22.5103C20.9156 22.3192 21.3345 22.0391 21.6874 21.6861C22.0403 21.333 22.3201 20.9139 22.511 20.4527C22.7019 19.9915 22.8001 19.4973 22.8 18.9981C22.7999 18.499 22.7014 18.0047 22.5103 17.5436C22.3192 17.0825 22.0391 16.6636 21.6861 16.3107C21.333 15.9578 20.9139 15.678 20.4527 15.4871C19.9915 15.2962 19.4973 15.198 18.9981 15.1981C17.99 15.1984 17.0234 15.5991 16.3107 16.3121C15.5981 17.025 15.1979 17.9919 15.1981 19C15.1984 20.0081 15.5991 20.9748 16.3121 21.6874C17.025 22.4 17.9919 22.8003 19 22.8V22.8ZM23.56 15.01H25.8381C25.9895 15.01 26.1346 14.95 26.2418 14.8432C26.349 14.7363 26.4095 14.5914 26.41 14.44V12.1619C26.41 12.0102 26.3498 11.8648 26.2425 11.7575C26.1353 11.6503 25.9898 11.59 25.8381 11.59H23.56C23.4083 11.59 23.2629 11.6503 23.1556 11.7575C23.0484 11.8648 22.9881 12.0102 22.9881 12.1619V14.44C22.99 14.7535 23.2465 15.01 23.56 15.01V15.01ZM19 0.76001C14.1625 0.76001 9.52305 2.68172 6.10238 6.10238C2.68172 9.52305 0.76001 14.1625 0.76001 19C0.76001 23.8376 2.68172 28.477 6.10238 31.8976C9.52305 35.3183 14.1625 37.24 19 37.24C21.3953 37.24 23.7672 36.7682 25.9802 35.8516C28.1931 34.9349 30.2039 33.5914 31.8976 31.8976C33.5914 30.2039 34.9349 28.1931 35.8516 25.9802C36.7682 23.7672 37.24 21.3953 37.24 19C37.24 16.6047 36.7682 14.2328 35.8516 12.0199C34.9349 9.80689 33.5914 7.79612 31.8976 6.10238C30.2039 4.40864 28.1931 3.06509 25.9802 2.14845C23.7672 1.2318 21.3953 0.76001 19 0.76001V0.76001ZM28.5 26.3891C28.5 27.55 27.55 28.5 26.3891 28.5H11.6109C10.45 28.5 9.50001 27.55 9.50001 26.3891V11.6109C9.50001 10.45 10.45 9.50001 11.6109 9.50001H26.3891C27.55 9.50001 28.5 10.45 28.5 11.6109V26.3891V26.3891Z" fill="#474946"/>
</g>
<defs>
<clipPath id="clip0_3_43">
<rect width="38" height="38" fill="white"/>
</clipPath>
</defs>
</svg>
