<svg width="38" height="38" viewBox="0 0 38 38" fill="none" xmlns="http://www.w3.org/2000/svg">
<g clip-path="url(#clip0_3_50)">
<path d="M19 0.76001C8.92621 0.76001 0.76001 8.92621 0.76001 19C0.76001 29.0738 8.92621 37.24 19 37.24C29.0738 37.24 37.24 29.0738 37.24 19C37.24 8.92621 29.0738 0.76001 19 0.76001ZM20.2483 23.3225C19.0779 23.2332 18.5877 22.6537 17.6719 22.0989C17.1684 24.7418 16.5528 27.2764 14.7288 28.6007C14.1645 24.6031 15.5534 21.6049 16.1994 18.4186C15.0993 16.5661 16.3305 12.8402 18.6523 13.756C21.508 14.8884 16.1785 20.6435 19.7562 21.3636C23.4916 22.1122 25.0173 14.8808 22.7012 12.5324C19.3534 9.13711 12.9599 12.4545 13.7465 17.3147C13.9365 18.5022 15.1658 18.8632 14.2367 20.5029C12.0954 20.0279 11.4551 18.3388 11.5387 16.0873C11.6698 12.4013 14.8504 9.81921 18.0386 9.46391C22.0723 9.01551 25.8571 10.944 26.3815 14.7402C26.9686 19.0228 24.5594 23.6569 20.2483 23.3225Z" fill="#474946"/>
</g>
<defs>
<clipPath id="clip0_3_50">
<rect width="38" height="38" fill="white"/>
</clipPath>
</defs>
</svg>
