<svg width="38" height="38" viewBox="0 0 38 38" fill="none" xmlns="http://www.w3.org/2000/svg">
<g clip-path="url(#clip0_3_46)">
<path d="M19 0.76001C8.92621 0.76001 0.76001 8.92621 0.76001 19C0.76001 29.0738 8.92621 37.24 19 37.24C29.0738 37.24 37.24 29.0738 37.24 19C37.24 8.92621 29.0738 0.76001 19 0.76001ZM26.4195 15.7016C26.4271 15.8574 26.429 16.0132 26.429 16.1652C26.429 20.9152 22.8171 26.3891 16.2089 26.3891C14.2563 26.3924 12.3442 25.8316 10.7027 24.7741C10.982 24.8083 11.2689 24.8216 11.5596 24.8216C13.243 24.8216 14.7915 24.2497 16.0208 23.2845C15.2717 23.2698 14.5458 23.0217 13.9443 22.5749C13.3429 22.1281 12.8958 21.5047 12.6654 20.7917C13.2034 20.894 13.7576 20.8726 14.2861 20.729C13.473 20.5646 12.7418 20.124 12.2165 19.482C11.6911 18.8399 11.404 18.036 11.4038 17.2064V17.1627C11.8883 17.4306 12.4431 17.594 13.0321 17.613C12.2698 17.1056 11.7302 16.3261 11.5236 15.434C11.317 14.5418 11.459 13.6045 11.9206 12.8136C12.823 13.9232 13.9484 14.8309 15.2239 15.478C16.4994 16.1251 17.8965 16.4971 19.3249 16.5699C19.1433 15.7991 19.2215 14.9899 19.5472 14.2681C19.873 13.5463 20.4281 12.9523 21.1262 12.5785C21.8244 12.2047 22.6265 12.0721 23.4078 12.2012C24.1891 12.3303 24.9059 12.7139 25.4467 13.2924C26.2507 13.1333 27.0218 12.8384 27.7267 12.4203C27.4587 13.2528 26.8977 13.9596 26.1478 14.4096C26.86 14.3238 27.5555 14.1324 28.2112 13.8415C27.7295 14.5633 27.1228 15.1932 26.4195 15.7016V15.7016Z" fill="#474946"/>
</g>
<defs>
<clipPath id="clip0_3_46">
<rect width="38" height="38" fill="white"/>
</clipPath>
</defs>
</svg>
